<mxfile host="app.diagrams.net" modified="2020-11-09T02:50:07.954Z" agent="5.0 (X11)" etag="kyljU9m1Zthpl5dHmJpR" version="13.9.2" type="github">
  <diagram name="Page-1" id="9f46799a-70d6-7492-0946-bef42562c5a5">
    <mxGraphModel dx="2340" dy="604" grid="1" gridSize="10" guides="1" tooltips="1" connect="1" arrows="1" fold="1" page="1" pageScale="1" pageWidth="1100" pageHeight="850" background="#ffffff" math="0" shadow="0">
      <root>
        <mxCell id="0" />
        <mxCell id="1" parent="0" />
        <mxCell id="SXDYL1rwi5fSFHbhI0N0-360" style="edgeStyle=orthogonalEdgeStyle;rounded=0;orthogonalLoop=1;jettySize=auto;html=1;exitX=0.5;exitY=1;exitDx=0;exitDy=0;entryX=0.373;entryY=0.002;entryDx=0;entryDy=0;entryPerimeter=0;" edge="1" parent="1" source="SXDYL1rwi5fSFHbhI0N0-153" target="SXDYL1rwi5fSFHbhI0N0-343">
          <mxGeometry relative="1" as="geometry">
            <mxPoint x="-230" y="410" as="targetPoint" />
          </mxGeometry>
        </mxCell>
        <mxCell id="SXDYL1rwi5fSFHbhI0N0-153" value="Table_User" style="shape=table;startSize=30;container=1;collapsible=1;childLayout=tableLayout;fixedRows=1;rowLines=0;fontStyle=1;align=center;resizeLast=1;strokeColor=#000000;" vertex="1" parent="1">
          <mxGeometry x="-320" y="85" width="180" height="270" as="geometry" />
        </mxCell>
        <mxCell id="SXDYL1rwi5fSFHbhI0N0-154" value="" style="shape=partialRectangle;collapsible=0;dropTarget=0;pointerEvents=0;fillColor=none;top=0;left=0;bottom=1;right=0;points=[[0,0.5],[1,0.5]];portConstraint=eastwest;" vertex="1" parent="SXDYL1rwi5fSFHbhI0N0-153">
          <mxGeometry y="30" width="180" height="20" as="geometry" />
        </mxCell>
        <mxCell id="SXDYL1rwi5fSFHbhI0N0-155" value="PK" style="shape=partialRectangle;connectable=0;fillColor=none;top=0;left=0;bottom=0;right=0;fontStyle=1;overflow=hidden;" vertex="1" parent="SXDYL1rwi5fSFHbhI0N0-154">
          <mxGeometry width="30" height="20" as="geometry" />
        </mxCell>
        <mxCell id="SXDYL1rwi5fSFHbhI0N0-156" value="Id_User" style="shape=partialRectangle;connectable=0;fillColor=none;top=0;left=0;bottom=0;right=0;align=left;spacingLeft=6;fontStyle=5;overflow=hidden;" vertex="1" parent="SXDYL1rwi5fSFHbhI0N0-154">
          <mxGeometry x="30" width="150" height="20" as="geometry" />
        </mxCell>
        <mxCell id="SXDYL1rwi5fSFHbhI0N0-157" value="" style="shape=partialRectangle;collapsible=0;dropTarget=0;pointerEvents=0;fillColor=none;top=0;left=0;bottom=0;right=0;points=[[0,0.5],[1,0.5]];portConstraint=eastwest;" vertex="1" parent="SXDYL1rwi5fSFHbhI0N0-153">
          <mxGeometry y="50" width="180" height="30" as="geometry" />
        </mxCell>
        <mxCell id="SXDYL1rwi5fSFHbhI0N0-158" value="" style="shape=partialRectangle;connectable=0;fillColor=none;top=0;left=0;bottom=0;right=0;editable=1;overflow=hidden;" vertex="1" parent="SXDYL1rwi5fSFHbhI0N0-157">
          <mxGeometry width="30" height="30" as="geometry" />
        </mxCell>
        <mxCell id="SXDYL1rwi5fSFHbhI0N0-159" value="Email" style="shape=partialRectangle;connectable=0;fillColor=none;top=0;left=0;bottom=0;right=0;align=left;spacingLeft=6;overflow=hidden;" vertex="1" parent="SXDYL1rwi5fSFHbhI0N0-157">
          <mxGeometry x="30" width="150" height="30" as="geometry" />
        </mxCell>
        <mxCell id="SXDYL1rwi5fSFHbhI0N0-265" value="" style="shape=partialRectangle;collapsible=0;dropTarget=0;pointerEvents=0;fillColor=none;top=0;left=0;bottom=0;right=0;points=[[0,0.5],[1,0.5]];portConstraint=eastwest;strokeColor=#000000;" vertex="1" parent="SXDYL1rwi5fSFHbhI0N0-153">
          <mxGeometry y="80" width="180" height="30" as="geometry" />
        </mxCell>
        <mxCell id="SXDYL1rwi5fSFHbhI0N0-266" value="" style="shape=partialRectangle;connectable=0;fillColor=none;top=0;left=0;bottom=0;right=0;editable=1;overflow=hidden;" vertex="1" parent="SXDYL1rwi5fSFHbhI0N0-265">
          <mxGeometry width="30" height="30" as="geometry" />
        </mxCell>
        <mxCell id="SXDYL1rwi5fSFHbhI0N0-267" value="Password" style="shape=partialRectangle;connectable=0;fillColor=none;top=0;left=0;bottom=0;right=0;align=left;spacingLeft=6;overflow=hidden;" vertex="1" parent="SXDYL1rwi5fSFHbhI0N0-265">
          <mxGeometry x="30" width="150" height="30" as="geometry" />
        </mxCell>
        <mxCell id="SXDYL1rwi5fSFHbhI0N0-160" value="" style="shape=partialRectangle;collapsible=0;dropTarget=0;pointerEvents=0;fillColor=none;top=0;left=0;bottom=0;right=0;points=[[0,0.5],[1,0.5]];portConstraint=eastwest;" vertex="1" parent="SXDYL1rwi5fSFHbhI0N0-153">
          <mxGeometry y="110" width="180" height="30" as="geometry" />
        </mxCell>
        <mxCell id="SXDYL1rwi5fSFHbhI0N0-161" value="" style="shape=partialRectangle;connectable=0;fillColor=none;top=0;left=0;bottom=0;right=0;editable=1;overflow=hidden;" vertex="1" parent="SXDYL1rwi5fSFHbhI0N0-160">
          <mxGeometry width="30" height="30" as="geometry" />
        </mxCell>
        <mxCell id="SXDYL1rwi5fSFHbhI0N0-162" value="Nama" style="shape=partialRectangle;connectable=0;fillColor=none;top=0;left=0;bottom=0;right=0;align=left;spacingLeft=6;overflow=hidden;" vertex="1" parent="SXDYL1rwi5fSFHbhI0N0-160">
          <mxGeometry x="30" width="150" height="30" as="geometry" />
        </mxCell>
        <mxCell id="SXDYL1rwi5fSFHbhI0N0-163" value="" style="shape=partialRectangle;collapsible=0;dropTarget=0;pointerEvents=0;fillColor=none;top=0;left=0;bottom=0;right=0;points=[[0,0.5],[1,0.5]];portConstraint=eastwest;" vertex="1" parent="SXDYL1rwi5fSFHbhI0N0-153">
          <mxGeometry y="140" width="180" height="30" as="geometry" />
        </mxCell>
        <mxCell id="SXDYL1rwi5fSFHbhI0N0-164" value="" style="shape=partialRectangle;connectable=0;fillColor=none;top=0;left=0;bottom=0;right=0;editable=1;overflow=hidden;" vertex="1" parent="SXDYL1rwi5fSFHbhI0N0-163">
          <mxGeometry width="30" height="30" as="geometry" />
        </mxCell>
        <mxCell id="SXDYL1rwi5fSFHbhI0N0-165" value="Alamat" style="shape=partialRectangle;connectable=0;fillColor=none;top=0;left=0;bottom=0;right=0;align=left;spacingLeft=6;overflow=hidden;" vertex="1" parent="SXDYL1rwi5fSFHbhI0N0-163">
          <mxGeometry x="30" width="150" height="30" as="geometry" />
        </mxCell>
        <mxCell id="SXDYL1rwi5fSFHbhI0N0-268" value="" style="shape=partialRectangle;collapsible=0;dropTarget=0;pointerEvents=0;fillColor=none;top=0;left=0;bottom=0;right=0;points=[[0,0.5],[1,0.5]];portConstraint=eastwest;strokeColor=#000000;" vertex="1" parent="SXDYL1rwi5fSFHbhI0N0-153">
          <mxGeometry y="170" width="180" height="30" as="geometry" />
        </mxCell>
        <mxCell id="SXDYL1rwi5fSFHbhI0N0-269" value="" style="shape=partialRectangle;connectable=0;fillColor=none;top=0;left=0;bottom=0;right=0;editable=1;overflow=hidden;" vertex="1" parent="SXDYL1rwi5fSFHbhI0N0-268">
          <mxGeometry width="30" height="30" as="geometry" />
        </mxCell>
        <mxCell id="SXDYL1rwi5fSFHbhI0N0-270" value="No.Telpon" style="shape=partialRectangle;connectable=0;fillColor=none;top=0;left=0;bottom=0;right=0;align=left;spacingLeft=6;overflow=hidden;" vertex="1" parent="SXDYL1rwi5fSFHbhI0N0-268">
          <mxGeometry x="30" width="150" height="30" as="geometry" />
        </mxCell>
        <mxCell id="SXDYL1rwi5fSFHbhI0N0-175" value="" style="shape=partialRectangle;collapsible=0;dropTarget=0;pointerEvents=0;fillColor=none;top=0;left=0;bottom=0;right=0;points=[[0,0.5],[1,0.5]];portConstraint=eastwest;strokeColor=#000000;" vertex="1" parent="SXDYL1rwi5fSFHbhI0N0-153">
          <mxGeometry y="200" width="180" height="30" as="geometry" />
        </mxCell>
        <mxCell id="SXDYL1rwi5fSFHbhI0N0-176" value="" style="shape=partialRectangle;connectable=0;fillColor=none;top=0;left=0;bottom=0;right=0;editable=1;overflow=hidden;" vertex="1" parent="SXDYL1rwi5fSFHbhI0N0-175">
          <mxGeometry width="30" height="30" as="geometry" />
        </mxCell>
        <mxCell id="SXDYL1rwi5fSFHbhI0N0-177" value="Create_at" style="shape=partialRectangle;connectable=0;fillColor=none;top=0;left=0;bottom=0;right=0;align=left;spacingLeft=6;overflow=hidden;" vertex="1" parent="SXDYL1rwi5fSFHbhI0N0-175">
          <mxGeometry x="30" width="150" height="30" as="geometry" />
        </mxCell>
        <mxCell id="SXDYL1rwi5fSFHbhI0N0-178" value="" style="shape=partialRectangle;collapsible=0;dropTarget=0;pointerEvents=0;fillColor=none;top=0;left=0;bottom=0;right=0;points=[[0,0.5],[1,0.5]];portConstraint=eastwest;strokeColor=#000000;" vertex="1" parent="SXDYL1rwi5fSFHbhI0N0-153">
          <mxGeometry y="230" width="180" height="30" as="geometry" />
        </mxCell>
        <mxCell id="SXDYL1rwi5fSFHbhI0N0-179" value="" style="shape=partialRectangle;connectable=0;fillColor=none;top=0;left=0;bottom=0;right=0;editable=1;overflow=hidden;" vertex="1" parent="SXDYL1rwi5fSFHbhI0N0-178">
          <mxGeometry width="30" height="30" as="geometry" />
        </mxCell>
        <mxCell id="SXDYL1rwi5fSFHbhI0N0-180" value="Update_at" style="shape=partialRectangle;connectable=0;fillColor=none;top=0;left=0;bottom=0;right=0;align=left;spacingLeft=6;overflow=hidden;" vertex="1" parent="SXDYL1rwi5fSFHbhI0N0-178">
          <mxGeometry x="30" width="150" height="30" as="geometry" />
        </mxCell>
        <mxCell id="SXDYL1rwi5fSFHbhI0N0-181" value="Table_Barang" style="shape=table;startSize=30;container=1;collapsible=1;childLayout=tableLayout;fixedRows=1;rowLines=0;fontStyle=1;align=center;resizeLast=1;strokeColor=#000000;" vertex="1" parent="1">
          <mxGeometry x="190" y="80" width="180" height="460" as="geometry" />
        </mxCell>
        <mxCell id="SXDYL1rwi5fSFHbhI0N0-221" value="" style="shape=partialRectangle;collapsible=0;dropTarget=0;pointerEvents=0;fillColor=none;top=0;left=0;bottom=0;right=0;points=[[0,0.5],[1,0.5]];portConstraint=eastwest;strokeColor=#000000;" vertex="1" parent="SXDYL1rwi5fSFHbhI0N0-181">
          <mxGeometry y="30" width="180" height="30" as="geometry" />
        </mxCell>
        <mxCell id="SXDYL1rwi5fSFHbhI0N0-222" value="PK" style="shape=partialRectangle;connectable=0;fillColor=none;top=0;left=0;bottom=0;right=0;fontStyle=1;overflow=hidden;" vertex="1" parent="SXDYL1rwi5fSFHbhI0N0-221">
          <mxGeometry width="30" height="30" as="geometry" />
        </mxCell>
        <mxCell id="SXDYL1rwi5fSFHbhI0N0-223" value="Id_barang" style="shape=partialRectangle;connectable=0;fillColor=none;top=0;left=0;bottom=0;right=0;align=left;spacingLeft=6;fontStyle=1;overflow=hidden;" vertex="1" parent="SXDYL1rwi5fSFHbhI0N0-221">
          <mxGeometry x="30" width="150" height="30" as="geometry" />
        </mxCell>
        <mxCell id="SXDYL1rwi5fSFHbhI0N0-218" value="" style="shape=partialRectangle;collapsible=0;dropTarget=0;pointerEvents=0;fillColor=none;top=0;left=0;bottom=0;right=0;points=[[0,0.5],[1,0.5]];portConstraint=eastwest;strokeColor=#000000;" vertex="1" parent="SXDYL1rwi5fSFHbhI0N0-181">
          <mxGeometry y="60" width="180" height="30" as="geometry" />
        </mxCell>
        <mxCell id="SXDYL1rwi5fSFHbhI0N0-219" value="FK" style="shape=partialRectangle;connectable=0;fillColor=none;top=0;left=0;bottom=0;right=0;fontStyle=0;overflow=hidden;" vertex="1" parent="SXDYL1rwi5fSFHbhI0N0-218">
          <mxGeometry width="30" height="30" as="geometry" />
        </mxCell>
        <mxCell id="SXDYL1rwi5fSFHbhI0N0-220" value="ID_Penjual" style="shape=partialRectangle;connectable=0;fillColor=none;top=0;left=0;bottom=0;right=0;align=left;spacingLeft=6;fontStyle=0;overflow=hidden;" vertex="1" parent="SXDYL1rwi5fSFHbhI0N0-218">
          <mxGeometry x="30" width="150" height="30" as="geometry" />
        </mxCell>
        <mxCell id="SXDYL1rwi5fSFHbhI0N0-307" value="" style="shape=partialRectangle;collapsible=0;dropTarget=0;pointerEvents=0;fillColor=none;top=0;left=0;bottom=0;right=0;points=[[0,0.5],[1,0.5]];portConstraint=eastwest;strokeColor=#000000;" vertex="1" parent="SXDYL1rwi5fSFHbhI0N0-181">
          <mxGeometry y="90" width="180" height="30" as="geometry" />
        </mxCell>
        <mxCell id="SXDYL1rwi5fSFHbhI0N0-308" value="FK" style="shape=partialRectangle;connectable=0;fillColor=none;top=0;left=0;bottom=0;right=0;fontStyle=0;overflow=hidden;" vertex="1" parent="SXDYL1rwi5fSFHbhI0N0-307">
          <mxGeometry width="30" height="30" as="geometry" />
        </mxCell>
        <mxCell id="SXDYL1rwi5fSFHbhI0N0-309" value="ID_keranjang" style="shape=partialRectangle;connectable=0;fillColor=none;top=0;left=0;bottom=0;right=0;align=left;spacingLeft=6;fontStyle=0;overflow=hidden;" vertex="1" parent="SXDYL1rwi5fSFHbhI0N0-307">
          <mxGeometry x="30" width="150" height="30" as="geometry" />
        </mxCell>
        <mxCell id="SXDYL1rwi5fSFHbhI0N0-353" value="" style="shape=partialRectangle;collapsible=0;dropTarget=0;pointerEvents=0;fillColor=none;top=0;left=0;bottom=0;right=0;points=[[0,0.5],[1,0.5]];portConstraint=eastwest;" vertex="1" parent="SXDYL1rwi5fSFHbhI0N0-181">
          <mxGeometry y="120" width="180" height="30" as="geometry" />
        </mxCell>
        <mxCell id="SXDYL1rwi5fSFHbhI0N0-354" value="FK" style="shape=partialRectangle;connectable=0;fillColor=none;top=0;left=0;bottom=0;right=0;editable=1;overflow=hidden;" vertex="1" parent="SXDYL1rwi5fSFHbhI0N0-353">
          <mxGeometry width="30" height="30" as="geometry" />
        </mxCell>
        <mxCell id="SXDYL1rwi5fSFHbhI0N0-355" value="ID_gambar" style="shape=partialRectangle;connectable=0;fillColor=none;top=0;left=0;bottom=0;right=0;align=left;spacingLeft=6;overflow=hidden;" vertex="1" parent="SXDYL1rwi5fSFHbhI0N0-353">
          <mxGeometry x="30" width="150" height="30" as="geometry" />
        </mxCell>
        <mxCell id="SXDYL1rwi5fSFHbhI0N0-405" value="" style="shape=partialRectangle;collapsible=0;dropTarget=0;pointerEvents=0;fillColor=none;top=0;left=0;bottom=0;right=0;points=[[0,0.5],[1,0.5]];portConstraint=eastwest;strokeColor=#000000;" vertex="1" parent="SXDYL1rwi5fSFHbhI0N0-181">
          <mxGeometry y="150" width="180" height="30" as="geometry" />
        </mxCell>
        <mxCell id="SXDYL1rwi5fSFHbhI0N0-406" value="FK" style="shape=partialRectangle;connectable=0;fillColor=none;top=0;left=0;bottom=0;right=0;fontStyle=0;overflow=hidden;" vertex="1" parent="SXDYL1rwi5fSFHbhI0N0-405">
          <mxGeometry width="30" height="30" as="geometry" />
        </mxCell>
        <mxCell id="SXDYL1rwi5fSFHbhI0N0-407" value="ID_penjual" style="shape=partialRectangle;connectable=0;fillColor=none;top=0;left=0;bottom=0;right=0;align=left;spacingLeft=6;fontStyle=0;overflow=hidden;" vertex="1" parent="SXDYL1rwi5fSFHbhI0N0-405">
          <mxGeometry x="30" width="150" height="30" as="geometry" />
        </mxCell>
        <mxCell id="SXDYL1rwi5fSFHbhI0N0-182" value="" style="shape=partialRectangle;collapsible=0;dropTarget=0;pointerEvents=0;fillColor=none;top=0;left=0;bottom=1;right=0;points=[[0,0.5],[1,0.5]];portConstraint=eastwest;" vertex="1" parent="SXDYL1rwi5fSFHbhI0N0-181">
          <mxGeometry y="180" width="180" height="30" as="geometry" />
        </mxCell>
        <mxCell id="SXDYL1rwi5fSFHbhI0N0-183" value="FK" style="shape=partialRectangle;connectable=0;fillColor=none;top=0;left=0;bottom=0;right=0;fontStyle=0;overflow=hidden;" vertex="1" parent="SXDYL1rwi5fSFHbhI0N0-182">
          <mxGeometry width="30" height="30" as="geometry" />
        </mxCell>
        <mxCell id="SXDYL1rwi5fSFHbhI0N0-184" value="ID_kategori" style="shape=partialRectangle;connectable=0;fillColor=none;top=0;left=0;bottom=0;right=0;align=left;spacingLeft=6;fontStyle=4;overflow=hidden;" vertex="1" parent="SXDYL1rwi5fSFHbhI0N0-182">
          <mxGeometry x="30" width="150" height="30" as="geometry" />
        </mxCell>
        <mxCell id="SXDYL1rwi5fSFHbhI0N0-211" value="" style="shape=partialRectangle;collapsible=0;dropTarget=0;pointerEvents=0;fillColor=none;top=0;left=0;bottom=0;right=0;points=[[0,0.5],[1,0.5]];portConstraint=eastwest;" vertex="1" parent="SXDYL1rwi5fSFHbhI0N0-181">
          <mxGeometry y="210" width="180" height="30" as="geometry" />
        </mxCell>
        <mxCell id="SXDYL1rwi5fSFHbhI0N0-212" value="" style="shape=partialRectangle;connectable=0;fillColor=none;top=0;left=0;bottom=0;right=0;editable=1;overflow=hidden;" vertex="1" parent="SXDYL1rwi5fSFHbhI0N0-211">
          <mxGeometry width="30" height="30" as="geometry" />
        </mxCell>
        <mxCell id="SXDYL1rwi5fSFHbhI0N0-213" value="Nama_barang" style="shape=partialRectangle;connectable=0;fillColor=none;top=0;left=0;bottom=0;right=0;align=left;spacingLeft=6;overflow=hidden;" vertex="1" parent="SXDYL1rwi5fSFHbhI0N0-211">
          <mxGeometry x="30" width="150" height="30" as="geometry" />
        </mxCell>
        <mxCell id="SXDYL1rwi5fSFHbhI0N0-185" value="" style="shape=partialRectangle;collapsible=0;dropTarget=0;pointerEvents=0;fillColor=none;top=0;left=0;bottom=0;right=0;points=[[0,0.5],[1,0.5]];portConstraint=eastwest;" vertex="1" parent="SXDYL1rwi5fSFHbhI0N0-181">
          <mxGeometry y="240" width="180" height="30" as="geometry" />
        </mxCell>
        <mxCell id="SXDYL1rwi5fSFHbhI0N0-186" value="" style="shape=partialRectangle;connectable=0;fillColor=none;top=0;left=0;bottom=0;right=0;editable=1;overflow=hidden;" vertex="1" parent="SXDYL1rwi5fSFHbhI0N0-185">
          <mxGeometry width="30" height="30" as="geometry" />
        </mxCell>
        <mxCell id="SXDYL1rwi5fSFHbhI0N0-187" value="Deskripsi" style="shape=partialRectangle;connectable=0;fillColor=none;top=0;left=0;bottom=0;right=0;align=left;spacingLeft=6;overflow=hidden;" vertex="1" parent="SXDYL1rwi5fSFHbhI0N0-185">
          <mxGeometry x="30" width="150" height="30" as="geometry" />
        </mxCell>
        <mxCell id="SXDYL1rwi5fSFHbhI0N0-188" value="" style="shape=partialRectangle;collapsible=0;dropTarget=0;pointerEvents=0;fillColor=none;top=0;left=0;bottom=0;right=0;points=[[0,0.5],[1,0.5]];portConstraint=eastwest;" vertex="1" parent="SXDYL1rwi5fSFHbhI0N0-181">
          <mxGeometry y="270" width="180" height="30" as="geometry" />
        </mxCell>
        <mxCell id="SXDYL1rwi5fSFHbhI0N0-189" value="" style="shape=partialRectangle;connectable=0;fillColor=none;top=0;left=0;bottom=0;right=0;editable=1;overflow=hidden;" vertex="1" parent="SXDYL1rwi5fSFHbhI0N0-188">
          <mxGeometry width="30" height="30" as="geometry" />
        </mxCell>
        <mxCell id="SXDYL1rwi5fSFHbhI0N0-190" value="Harga" style="shape=partialRectangle;connectable=0;fillColor=none;top=0;left=0;bottom=0;right=0;align=left;spacingLeft=6;overflow=hidden;" vertex="1" parent="SXDYL1rwi5fSFHbhI0N0-188">
          <mxGeometry x="30" width="150" height="30" as="geometry" />
        </mxCell>
        <mxCell id="SXDYL1rwi5fSFHbhI0N0-215" value="" style="shape=partialRectangle;collapsible=0;dropTarget=0;pointerEvents=0;fillColor=none;top=0;left=0;bottom=0;right=0;points=[[0,0.5],[1,0.5]];portConstraint=eastwest;" vertex="1" parent="SXDYL1rwi5fSFHbhI0N0-181">
          <mxGeometry y="300" width="180" height="30" as="geometry" />
        </mxCell>
        <mxCell id="SXDYL1rwi5fSFHbhI0N0-216" value="" style="shape=partialRectangle;connectable=0;fillColor=none;top=0;left=0;bottom=0;right=0;editable=1;overflow=hidden;" vertex="1" parent="SXDYL1rwi5fSFHbhI0N0-215">
          <mxGeometry width="30" height="30" as="geometry" />
        </mxCell>
        <mxCell id="SXDYL1rwi5fSFHbhI0N0-217" value="Stok" style="shape=partialRectangle;connectable=0;fillColor=none;top=0;left=0;bottom=0;right=0;align=left;spacingLeft=6;overflow=hidden;" vertex="1" parent="SXDYL1rwi5fSFHbhI0N0-215">
          <mxGeometry x="30" width="150" height="30" as="geometry" />
        </mxCell>
        <mxCell id="SXDYL1rwi5fSFHbhI0N0-334" value="" style="shape=partialRectangle;collapsible=0;dropTarget=0;pointerEvents=0;fillColor=none;top=0;left=0;bottom=0;right=0;points=[[0,0.5],[1,0.5]];portConstraint=eastwest;strokeColor=#000000;" vertex="1" parent="SXDYL1rwi5fSFHbhI0N0-181">
          <mxGeometry y="330" width="180" height="30" as="geometry" />
        </mxCell>
        <mxCell id="SXDYL1rwi5fSFHbhI0N0-335" value="" style="shape=partialRectangle;connectable=0;fillColor=none;top=0;left=0;bottom=0;right=0;editable=1;overflow=hidden;" vertex="1" parent="SXDYL1rwi5fSFHbhI0N0-334">
          <mxGeometry width="30" height="30" as="geometry" />
        </mxCell>
        <mxCell id="SXDYL1rwi5fSFHbhI0N0-336" value="Berat" style="shape=partialRectangle;connectable=0;fillColor=none;top=0;left=0;bottom=0;right=0;align=left;spacingLeft=6;overflow=hidden;" vertex="1" parent="SXDYL1rwi5fSFHbhI0N0-334">
          <mxGeometry x="30" width="150" height="30" as="geometry" />
        </mxCell>
        <mxCell id="SXDYL1rwi5fSFHbhI0N0-191" value="" style="shape=partialRectangle;collapsible=0;dropTarget=0;pointerEvents=0;fillColor=none;top=0;left=0;bottom=0;right=0;points=[[0,0.5],[1,0.5]];portConstraint=eastwest;" vertex="1" parent="SXDYL1rwi5fSFHbhI0N0-181">
          <mxGeometry y="360" width="180" height="30" as="geometry" />
        </mxCell>
        <mxCell id="SXDYL1rwi5fSFHbhI0N0-192" value="" style="shape=partialRectangle;connectable=0;fillColor=none;top=0;left=0;bottom=0;right=0;editable=1;overflow=hidden;" vertex="1" parent="SXDYL1rwi5fSFHbhI0N0-191">
          <mxGeometry width="30" height="30" as="geometry" />
        </mxCell>
        <mxCell id="SXDYL1rwi5fSFHbhI0N0-193" value="klik" style="shape=partialRectangle;connectable=0;fillColor=none;top=0;left=0;bottom=0;right=0;align=left;spacingLeft=6;overflow=hidden;" vertex="1" parent="SXDYL1rwi5fSFHbhI0N0-191">
          <mxGeometry x="30" width="150" height="30" as="geometry" />
        </mxCell>
        <mxCell id="SXDYL1rwi5fSFHbhI0N0-244" value="" style="shape=partialRectangle;collapsible=0;dropTarget=0;pointerEvents=0;fillColor=none;top=0;left=0;bottom=0;right=0;points=[[0,0.5],[1,0.5]];portConstraint=eastwest;" vertex="1" parent="SXDYL1rwi5fSFHbhI0N0-181">
          <mxGeometry y="390" width="180" height="30" as="geometry" />
        </mxCell>
        <mxCell id="SXDYL1rwi5fSFHbhI0N0-245" value="" style="shape=partialRectangle;connectable=0;fillColor=none;top=0;left=0;bottom=0;right=0;editable=1;overflow=hidden;" vertex="1" parent="SXDYL1rwi5fSFHbhI0N0-244">
          <mxGeometry width="30" height="30" as="geometry" />
        </mxCell>
        <mxCell id="SXDYL1rwi5fSFHbhI0N0-246" value="Create_at" style="shape=partialRectangle;connectable=0;fillColor=none;top=0;left=0;bottom=0;right=0;align=left;spacingLeft=6;overflow=hidden;" vertex="1" parent="SXDYL1rwi5fSFHbhI0N0-244">
          <mxGeometry x="30" width="150" height="30" as="geometry" />
        </mxCell>
        <mxCell id="SXDYL1rwi5fSFHbhI0N0-247" value="" style="shape=partialRectangle;collapsible=0;dropTarget=0;pointerEvents=0;fillColor=none;top=0;left=0;bottom=0;right=0;points=[[0,0.5],[1,0.5]];portConstraint=eastwest;" vertex="1" parent="SXDYL1rwi5fSFHbhI0N0-181">
          <mxGeometry y="420" width="180" height="30" as="geometry" />
        </mxCell>
        <mxCell id="SXDYL1rwi5fSFHbhI0N0-248" value="" style="shape=partialRectangle;connectable=0;fillColor=none;top=0;left=0;bottom=0;right=0;editable=1;overflow=hidden;" vertex="1" parent="SXDYL1rwi5fSFHbhI0N0-247">
          <mxGeometry width="30" height="30" as="geometry" />
        </mxCell>
        <mxCell id="SXDYL1rwi5fSFHbhI0N0-249" value="Update_at" style="shape=partialRectangle;connectable=0;fillColor=none;top=0;left=0;bottom=0;right=0;align=left;spacingLeft=6;overflow=hidden;" vertex="1" parent="SXDYL1rwi5fSFHbhI0N0-247">
          <mxGeometry x="30" width="150" height="30" as="geometry" />
        </mxCell>
        <mxCell id="SXDYL1rwi5fSFHbhI0N0-206" value="" style="shape=table;startSize=0;container=1;collapsible=1;childLayout=tableLayout;fixedRows=1;rowLines=0;fontStyle=0;align=center;resizeLast=1;strokeColor=none;fillColor=none;" vertex="1" parent="1">
          <mxGeometry x="-670" y="310" width="180" height="60" as="geometry" />
        </mxCell>
        <mxCell id="SXDYL1rwi5fSFHbhI0N0-207" value="" style="shape=partialRectangle;collapsible=0;dropTarget=0;pointerEvents=0;fillColor=none;top=0;left=0;bottom=0;right=0;points=[[0,0.5],[1,0.5]];portConstraint=eastwest;" vertex="1" parent="SXDYL1rwi5fSFHbhI0N0-206">
          <mxGeometry width="180" height="30" as="geometry" />
        </mxCell>
        <mxCell id="SXDYL1rwi5fSFHbhI0N0-208" value="" style="shape=partialRectangle;connectable=0;fillColor=none;top=0;left=0;bottom=0;right=0;editable=1;overflow=hidden;" vertex="1" parent="SXDYL1rwi5fSFHbhI0N0-207">
          <mxGeometry width="30" height="30" as="geometry" />
        </mxCell>
        <mxCell id="SXDYL1rwi5fSFHbhI0N0-209" value="Create_at" style="shape=partialRectangle;connectable=0;fillColor=none;top=0;left=0;bottom=0;right=0;align=left;spacingLeft=6;overflow=hidden;" vertex="1" parent="SXDYL1rwi5fSFHbhI0N0-207">
          <mxGeometry x="30" width="150" height="30" as="geometry" />
        </mxCell>
        <mxCell id="SXDYL1rwi5fSFHbhI0N0-203" value="" style="shape=partialRectangle;collapsible=0;dropTarget=0;pointerEvents=0;fillColor=none;top=0;left=0;bottom=0;right=0;points=[[0,0.5],[1,0.5]];portConstraint=eastwest;" vertex="1" parent="SXDYL1rwi5fSFHbhI0N0-206">
          <mxGeometry y="30" width="180" height="30" as="geometry" />
        </mxCell>
        <mxCell id="SXDYL1rwi5fSFHbhI0N0-204" value="" style="shape=partialRectangle;connectable=0;fillColor=none;top=0;left=0;bottom=0;right=0;editable=1;overflow=hidden;" vertex="1" parent="SXDYL1rwi5fSFHbhI0N0-203">
          <mxGeometry width="30" height="30" as="geometry" />
        </mxCell>
        <mxCell id="SXDYL1rwi5fSFHbhI0N0-205" value="Update_at" style="shape=partialRectangle;connectable=0;fillColor=none;top=0;left=0;bottom=0;right=0;align=left;spacingLeft=6;overflow=hidden;" vertex="1" parent="SXDYL1rwi5fSFHbhI0N0-203">
          <mxGeometry x="30" width="150" height="30" as="geometry" />
        </mxCell>
        <mxCell id="SXDYL1rwi5fSFHbhI0N0-250" value="Table_Kategori" style="shape=table;startSize=30;container=1;collapsible=1;childLayout=tableLayout;fixedRows=1;rowLines=0;fontStyle=1;align=center;resizeLast=1;strokeColor=#000000;" vertex="1" parent="1">
          <mxGeometry x="510" y="300" width="180" height="190" as="geometry" />
        </mxCell>
        <mxCell id="SXDYL1rwi5fSFHbhI0N0-251" value="" style="shape=partialRectangle;collapsible=0;dropTarget=0;pointerEvents=0;fillColor=none;top=0;left=0;bottom=1;right=0;points=[[0,0.5],[1,0.5]];portConstraint=eastwest;" vertex="1" parent="SXDYL1rwi5fSFHbhI0N0-250">
          <mxGeometry y="30" width="180" height="30" as="geometry" />
        </mxCell>
        <mxCell id="SXDYL1rwi5fSFHbhI0N0-252" value="PK" style="shape=partialRectangle;connectable=0;fillColor=none;top=0;left=0;bottom=0;right=0;fontStyle=1;overflow=hidden;" vertex="1" parent="SXDYL1rwi5fSFHbhI0N0-251">
          <mxGeometry width="30" height="30" as="geometry" />
        </mxCell>
        <mxCell id="SXDYL1rwi5fSFHbhI0N0-253" value="Id_Kategori" style="shape=partialRectangle;connectable=0;fillColor=none;top=0;left=0;bottom=0;right=0;align=left;spacingLeft=6;fontStyle=5;overflow=hidden;" vertex="1" parent="SXDYL1rwi5fSFHbhI0N0-251">
          <mxGeometry x="30" width="150" height="30" as="geometry" />
        </mxCell>
        <mxCell id="SXDYL1rwi5fSFHbhI0N0-254" value="" style="shape=partialRectangle;collapsible=0;dropTarget=0;pointerEvents=0;fillColor=none;top=0;left=0;bottom=0;right=0;points=[[0,0.5],[1,0.5]];portConstraint=eastwest;" vertex="1" parent="SXDYL1rwi5fSFHbhI0N0-250">
          <mxGeometry y="60" width="180" height="30" as="geometry" />
        </mxCell>
        <mxCell id="SXDYL1rwi5fSFHbhI0N0-255" value="" style="shape=partialRectangle;connectable=0;fillColor=none;top=0;left=0;bottom=0;right=0;editable=1;overflow=hidden;" vertex="1" parent="SXDYL1rwi5fSFHbhI0N0-254">
          <mxGeometry width="30" height="30" as="geometry" />
        </mxCell>
        <mxCell id="SXDYL1rwi5fSFHbhI0N0-256" value="Nama_Kategori" style="shape=partialRectangle;connectable=0;fillColor=none;top=0;left=0;bottom=0;right=0;align=left;spacingLeft=6;overflow=hidden;" vertex="1" parent="SXDYL1rwi5fSFHbhI0N0-254">
          <mxGeometry x="30" width="150" height="30" as="geometry" />
        </mxCell>
        <mxCell id="SXDYL1rwi5fSFHbhI0N0-312" value="" style="shape=partialRectangle;collapsible=0;dropTarget=0;pointerEvents=0;fillColor=none;top=0;left=0;bottom=0;right=0;points=[[0,0.5],[1,0.5]];portConstraint=eastwest;strokeColor=#000000;" vertex="1" parent="SXDYL1rwi5fSFHbhI0N0-250">
          <mxGeometry y="90" width="180" height="30" as="geometry" />
        </mxCell>
        <mxCell id="SXDYL1rwi5fSFHbhI0N0-313" value="" style="shape=partialRectangle;connectable=0;fillColor=none;top=0;left=0;bottom=0;right=0;editable=1;overflow=hidden;" vertex="1" parent="SXDYL1rwi5fSFHbhI0N0-312">
          <mxGeometry width="30" height="30" as="geometry" />
        </mxCell>
        <mxCell id="SXDYL1rwi5fSFHbhI0N0-314" value="Spesifikasi" style="shape=partialRectangle;connectable=0;fillColor=none;top=0;left=0;bottom=0;right=0;align=left;spacingLeft=6;overflow=hidden;" vertex="1" parent="SXDYL1rwi5fSFHbhI0N0-312">
          <mxGeometry x="30" width="150" height="30" as="geometry" />
        </mxCell>
        <mxCell id="SXDYL1rwi5fSFHbhI0N0-237" value="" style="shape=partialRectangle;collapsible=0;dropTarget=0;pointerEvents=0;fillColor=none;top=0;left=0;bottom=0;right=0;points=[[0,0.5],[1,0.5]];portConstraint=eastwest;" vertex="1" parent="SXDYL1rwi5fSFHbhI0N0-250">
          <mxGeometry y="120" width="180" height="30" as="geometry" />
        </mxCell>
        <mxCell id="SXDYL1rwi5fSFHbhI0N0-238" value="" style="shape=partialRectangle;connectable=0;fillColor=none;top=0;left=0;bottom=0;right=0;editable=1;overflow=hidden;" vertex="1" parent="SXDYL1rwi5fSFHbhI0N0-237">
          <mxGeometry width="30" height="30" as="geometry" />
        </mxCell>
        <mxCell id="SXDYL1rwi5fSFHbhI0N0-239" value="Create_at" style="shape=partialRectangle;connectable=0;fillColor=none;top=0;left=0;bottom=0;right=0;align=left;spacingLeft=6;overflow=hidden;" vertex="1" parent="SXDYL1rwi5fSFHbhI0N0-237">
          <mxGeometry x="30" width="150" height="30" as="geometry" />
        </mxCell>
        <mxCell id="SXDYL1rwi5fSFHbhI0N0-240" value="" style="shape=partialRectangle;collapsible=0;dropTarget=0;pointerEvents=0;fillColor=none;top=0;left=0;bottom=0;right=0;points=[[0,0.5],[1,0.5]];portConstraint=eastwest;" vertex="1" parent="SXDYL1rwi5fSFHbhI0N0-250">
          <mxGeometry y="150" width="180" height="30" as="geometry" />
        </mxCell>
        <mxCell id="SXDYL1rwi5fSFHbhI0N0-241" value="" style="shape=partialRectangle;connectable=0;fillColor=none;top=0;left=0;bottom=0;right=0;editable=1;overflow=hidden;" vertex="1" parent="SXDYL1rwi5fSFHbhI0N0-240">
          <mxGeometry width="30" height="30" as="geometry" />
        </mxCell>
        <mxCell id="SXDYL1rwi5fSFHbhI0N0-242" value="Update_at" style="shape=partialRectangle;connectable=0;fillColor=none;top=0;left=0;bottom=0;right=0;align=left;spacingLeft=6;overflow=hidden;" vertex="1" parent="SXDYL1rwi5fSFHbhI0N0-240">
          <mxGeometry x="30" width="150" height="30" as="geometry" />
        </mxCell>
        <mxCell id="SXDYL1rwi5fSFHbhI0N0-271" value="Table_Keranjang" style="shape=table;startSize=30;container=1;collapsible=1;childLayout=tableLayout;fixedRows=1;rowLines=0;fontStyle=1;align=center;resizeLast=1;strokeColor=#000000;" vertex="1" parent="1">
          <mxGeometry x="-30" y="80" width="180" height="190" as="geometry" />
        </mxCell>
        <mxCell id="SXDYL1rwi5fSFHbhI0N0-285" value="" style="shape=partialRectangle;collapsible=0;dropTarget=0;pointerEvents=0;fillColor=none;top=0;left=0;bottom=0;right=0;points=[[0,0.5],[1,0.5]];portConstraint=eastwest;strokeColor=#000000;" vertex="1" parent="SXDYL1rwi5fSFHbhI0N0-271">
          <mxGeometry y="30" width="180" height="30" as="geometry" />
        </mxCell>
        <mxCell id="SXDYL1rwi5fSFHbhI0N0-286" value="PK" style="shape=partialRectangle;connectable=0;fillColor=none;top=0;left=0;bottom=0;right=0;fontStyle=1;overflow=hidden;" vertex="1" parent="SXDYL1rwi5fSFHbhI0N0-285">
          <mxGeometry width="30" height="30" as="geometry" />
        </mxCell>
        <mxCell id="SXDYL1rwi5fSFHbhI0N0-287" value="ID" style="shape=partialRectangle;connectable=0;fillColor=none;top=0;left=0;bottom=0;right=0;align=left;spacingLeft=6;fontStyle=1;overflow=hidden;" vertex="1" parent="SXDYL1rwi5fSFHbhI0N0-285">
          <mxGeometry x="30" width="150" height="30" as="geometry" />
        </mxCell>
        <mxCell id="SXDYL1rwi5fSFHbhI0N0-272" value="" style="shape=partialRectangle;collapsible=0;dropTarget=0;pointerEvents=0;fillColor=none;top=0;left=0;bottom=1;right=0;points=[[0,0.5],[1,0.5]];portConstraint=eastwest;" vertex="1" parent="SXDYL1rwi5fSFHbhI0N0-271">
          <mxGeometry y="60" width="180" height="30" as="geometry" />
        </mxCell>
        <mxCell id="SXDYL1rwi5fSFHbhI0N0-273" value="FK" style="shape=partialRectangle;connectable=0;fillColor=none;top=0;left=0;bottom=0;right=0;fontStyle=0;overflow=hidden;" vertex="1" parent="SXDYL1rwi5fSFHbhI0N0-272">
          <mxGeometry width="30" height="30" as="geometry" />
        </mxCell>
        <mxCell id="SXDYL1rwi5fSFHbhI0N0-274" value="ID_Barang" style="shape=partialRectangle;connectable=0;fillColor=none;top=0;left=0;bottom=0;right=0;align=left;spacingLeft=6;fontStyle=4;overflow=hidden;" vertex="1" parent="SXDYL1rwi5fSFHbhI0N0-272">
          <mxGeometry x="30" width="150" height="30" as="geometry" />
        </mxCell>
        <mxCell id="SXDYL1rwi5fSFHbhI0N0-275" value="" style="shape=partialRectangle;collapsible=0;dropTarget=0;pointerEvents=0;fillColor=none;top=0;left=0;bottom=0;right=0;points=[[0,0.5],[1,0.5]];portConstraint=eastwest;" vertex="1" parent="SXDYL1rwi5fSFHbhI0N0-271">
          <mxGeometry y="90" width="180" height="30" as="geometry" />
        </mxCell>
        <mxCell id="SXDYL1rwi5fSFHbhI0N0-276" value="" style="shape=partialRectangle;connectable=0;fillColor=none;top=0;left=0;bottom=0;right=0;editable=1;overflow=hidden;" vertex="1" parent="SXDYL1rwi5fSFHbhI0N0-275">
          <mxGeometry width="30" height="30" as="geometry" />
        </mxCell>
        <mxCell id="SXDYL1rwi5fSFHbhI0N0-277" value="Row 1" style="shape=partialRectangle;connectable=0;fillColor=none;top=0;left=0;bottom=0;right=0;align=left;spacingLeft=6;overflow=hidden;" vertex="1" parent="SXDYL1rwi5fSFHbhI0N0-275">
          <mxGeometry x="30" width="150" height="30" as="geometry" />
        </mxCell>
        <mxCell id="SXDYL1rwi5fSFHbhI0N0-278" value="" style="shape=partialRectangle;collapsible=0;dropTarget=0;pointerEvents=0;fillColor=none;top=0;left=0;bottom=0;right=0;points=[[0,0.5],[1,0.5]];portConstraint=eastwest;" vertex="1" parent="SXDYL1rwi5fSFHbhI0N0-271">
          <mxGeometry y="120" width="180" height="30" as="geometry" />
        </mxCell>
        <mxCell id="SXDYL1rwi5fSFHbhI0N0-279" value="" style="shape=partialRectangle;connectable=0;fillColor=none;top=0;left=0;bottom=0;right=0;editable=1;overflow=hidden;" vertex="1" parent="SXDYL1rwi5fSFHbhI0N0-278">
          <mxGeometry width="30" height="30" as="geometry" />
        </mxCell>
        <mxCell id="SXDYL1rwi5fSFHbhI0N0-280" value="Row 2" style="shape=partialRectangle;connectable=0;fillColor=none;top=0;left=0;bottom=0;right=0;align=left;spacingLeft=6;overflow=hidden;" vertex="1" parent="SXDYL1rwi5fSFHbhI0N0-278">
          <mxGeometry x="30" width="150" height="30" as="geometry" />
        </mxCell>
        <mxCell id="SXDYL1rwi5fSFHbhI0N0-281" value="" style="shape=partialRectangle;collapsible=0;dropTarget=0;pointerEvents=0;fillColor=none;top=0;left=0;bottom=0;right=0;points=[[0,0.5],[1,0.5]];portConstraint=eastwest;" vertex="1" parent="SXDYL1rwi5fSFHbhI0N0-271">
          <mxGeometry y="150" width="180" height="30" as="geometry" />
        </mxCell>
        <mxCell id="SXDYL1rwi5fSFHbhI0N0-282" value="" style="shape=partialRectangle;connectable=0;fillColor=none;top=0;left=0;bottom=0;right=0;editable=1;overflow=hidden;" vertex="1" parent="SXDYL1rwi5fSFHbhI0N0-281">
          <mxGeometry width="30" height="30" as="geometry" />
        </mxCell>
        <mxCell id="SXDYL1rwi5fSFHbhI0N0-283" value="Row 3" style="shape=partialRectangle;connectable=0;fillColor=none;top=0;left=0;bottom=0;right=0;align=left;spacingLeft=6;overflow=hidden;" vertex="1" parent="SXDYL1rwi5fSFHbhI0N0-281">
          <mxGeometry x="30" width="150" height="30" as="geometry" />
        </mxCell>
        <mxCell id="SXDYL1rwi5fSFHbhI0N0-288" value="Table_Penjual" style="shape=table;startSize=30;container=1;collapsible=1;childLayout=tableLayout;fixedRows=1;rowLines=0;fontStyle=1;align=center;resizeLast=1;strokeColor=#000000;" vertex="1" parent="1">
          <mxGeometry x="510" y="560" width="180" height="280" as="geometry" />
        </mxCell>
        <mxCell id="SXDYL1rwi5fSFHbhI0N0-289" value="" style="shape=partialRectangle;collapsible=0;dropTarget=0;pointerEvents=0;fillColor=none;top=0;left=0;bottom=0;right=0;points=[[0,0.5],[1,0.5]];portConstraint=eastwest;strokeColor=#000000;" vertex="1" parent="SXDYL1rwi5fSFHbhI0N0-288">
          <mxGeometry y="30" width="180" height="30" as="geometry" />
        </mxCell>
        <mxCell id="SXDYL1rwi5fSFHbhI0N0-290" value="PK" style="shape=partialRectangle;connectable=0;fillColor=none;top=0;left=0;bottom=0;right=0;fontStyle=1;overflow=hidden;" vertex="1" parent="SXDYL1rwi5fSFHbhI0N0-289">
          <mxGeometry width="30" height="30" as="geometry" />
        </mxCell>
        <mxCell id="SXDYL1rwi5fSFHbhI0N0-291" value="ID_Penjual" style="shape=partialRectangle;connectable=0;fillColor=none;top=0;left=0;bottom=0;right=0;align=left;spacingLeft=6;fontStyle=1;overflow=hidden;" vertex="1" parent="SXDYL1rwi5fSFHbhI0N0-289">
          <mxGeometry x="30" width="150" height="30" as="geometry" />
        </mxCell>
        <mxCell id="SXDYL1rwi5fSFHbhI0N0-292" value="" style="shape=partialRectangle;collapsible=0;dropTarget=0;pointerEvents=0;fillColor=none;top=0;left=0;bottom=1;right=0;points=[[0,0.5],[1,0.5]];portConstraint=eastwest;" vertex="1" parent="SXDYL1rwi5fSFHbhI0N0-288">
          <mxGeometry y="60" width="180" height="30" as="geometry" />
        </mxCell>
        <mxCell id="SXDYL1rwi5fSFHbhI0N0-293" value="FK" style="shape=partialRectangle;connectable=0;fillColor=none;top=0;left=0;bottom=0;right=0;fontStyle=0;overflow=hidden;" vertex="1" parent="SXDYL1rwi5fSFHbhI0N0-292">
          <mxGeometry width="30" height="30" as="geometry" />
        </mxCell>
        <mxCell id="SXDYL1rwi5fSFHbhI0N0-294" value="Id" style="shape=partialRectangle;connectable=0;fillColor=none;top=0;left=0;bottom=0;right=0;align=left;spacingLeft=6;fontStyle=4;overflow=hidden;" vertex="1" parent="SXDYL1rwi5fSFHbhI0N0-292">
          <mxGeometry x="30" width="150" height="30" as="geometry" />
        </mxCell>
        <mxCell id="SXDYL1rwi5fSFHbhI0N0-424" value="" style="shape=partialRectangle;collapsible=0;dropTarget=0;pointerEvents=0;fillColor=none;top=0;left=0;bottom=0;right=0;points=[[0,0.5],[1,0.5]];portConstraint=eastwest;strokeColor=#000000;" vertex="1" parent="SXDYL1rwi5fSFHbhI0N0-288">
          <mxGeometry y="90" width="180" height="30" as="geometry" />
        </mxCell>
        <mxCell id="SXDYL1rwi5fSFHbhI0N0-425" value="" style="shape=partialRectangle;connectable=0;fillColor=none;top=0;left=0;bottom=0;right=0;editable=1;overflow=hidden;" vertex="1" parent="SXDYL1rwi5fSFHbhI0N0-424">
          <mxGeometry width="30" height="30" as="geometry" />
        </mxCell>
        <mxCell id="SXDYL1rwi5fSFHbhI0N0-426" value="Nama" style="shape=partialRectangle;connectable=0;fillColor=none;top=0;left=0;bottom=0;right=0;align=left;spacingLeft=6;overflow=hidden;" vertex="1" parent="SXDYL1rwi5fSFHbhI0N0-424">
          <mxGeometry x="30" width="150" height="30" as="geometry" />
        </mxCell>
        <mxCell id="SXDYL1rwi5fSFHbhI0N0-427" value="" style="shape=partialRectangle;collapsible=0;dropTarget=0;pointerEvents=0;fillColor=none;top=0;left=0;bottom=0;right=0;points=[[0,0.5],[1,0.5]];portConstraint=eastwest;strokeColor=#000000;" vertex="1" parent="SXDYL1rwi5fSFHbhI0N0-288">
          <mxGeometry y="120" width="180" height="30" as="geometry" />
        </mxCell>
        <mxCell id="SXDYL1rwi5fSFHbhI0N0-428" value="" style="shape=partialRectangle;connectable=0;fillColor=none;top=0;left=0;bottom=0;right=0;editable=1;overflow=hidden;" vertex="1" parent="SXDYL1rwi5fSFHbhI0N0-427">
          <mxGeometry width="30" height="30" as="geometry" />
        </mxCell>
        <mxCell id="SXDYL1rwi5fSFHbhI0N0-429" value="Alamat" style="shape=partialRectangle;connectable=0;fillColor=none;top=0;left=0;bottom=0;right=0;align=left;spacingLeft=6;overflow=hidden;" vertex="1" parent="SXDYL1rwi5fSFHbhI0N0-427">
          <mxGeometry x="30" width="150" height="30" as="geometry" />
        </mxCell>
        <mxCell id="SXDYL1rwi5fSFHbhI0N0-430" value="" style="shape=partialRectangle;collapsible=0;dropTarget=0;pointerEvents=0;fillColor=none;top=0;left=0;bottom=0;right=0;points=[[0,0.5],[1,0.5]];portConstraint=eastwest;strokeColor=#000000;" vertex="1" parent="SXDYL1rwi5fSFHbhI0N0-288">
          <mxGeometry y="150" width="180" height="30" as="geometry" />
        </mxCell>
        <mxCell id="SXDYL1rwi5fSFHbhI0N0-431" value="" style="shape=partialRectangle;connectable=0;fillColor=none;top=0;left=0;bottom=0;right=0;editable=1;overflow=hidden;" vertex="1" parent="SXDYL1rwi5fSFHbhI0N0-430">
          <mxGeometry width="30" height="30" as="geometry" />
        </mxCell>
        <mxCell id="SXDYL1rwi5fSFHbhI0N0-432" value="No.Telpon" style="shape=partialRectangle;connectable=0;fillColor=none;top=0;left=0;bottom=0;right=0;align=left;spacingLeft=6;overflow=hidden;" vertex="1" parent="SXDYL1rwi5fSFHbhI0N0-430">
          <mxGeometry x="30" width="150" height="30" as="geometry" />
        </mxCell>
        <mxCell id="SXDYL1rwi5fSFHbhI0N0-301" value="" style="shape=partialRectangle;collapsible=0;dropTarget=0;pointerEvents=0;fillColor=none;top=0;left=0;bottom=0;right=0;points=[[0,0.5],[1,0.5]];portConstraint=eastwest;" vertex="1" parent="SXDYL1rwi5fSFHbhI0N0-288">
          <mxGeometry y="180" width="180" height="30" as="geometry" />
        </mxCell>
        <mxCell id="SXDYL1rwi5fSFHbhI0N0-302" value="" style="shape=partialRectangle;connectable=0;fillColor=none;top=0;left=0;bottom=0;right=0;editable=1;overflow=hidden;" vertex="1" parent="SXDYL1rwi5fSFHbhI0N0-301">
          <mxGeometry width="30" height="30" as="geometry" />
        </mxCell>
        <mxCell id="SXDYL1rwi5fSFHbhI0N0-303" value="Row 3" style="shape=partialRectangle;connectable=0;fillColor=none;top=0;left=0;bottom=0;right=0;align=left;spacingLeft=6;overflow=hidden;" vertex="1" parent="SXDYL1rwi5fSFHbhI0N0-301">
          <mxGeometry x="30" width="150" height="30" as="geometry" />
        </mxCell>
        <mxCell id="SXDYL1rwi5fSFHbhI0N0-295" value="" style="shape=partialRectangle;collapsible=0;dropTarget=0;pointerEvents=0;fillColor=none;top=0;left=0;bottom=0;right=0;points=[[0,0.5],[1,0.5]];portConstraint=eastwest;" vertex="1" parent="SXDYL1rwi5fSFHbhI0N0-288">
          <mxGeometry y="210" width="180" height="30" as="geometry" />
        </mxCell>
        <mxCell id="SXDYL1rwi5fSFHbhI0N0-296" value="" style="shape=partialRectangle;connectable=0;fillColor=none;top=0;left=0;bottom=0;right=0;editable=1;overflow=hidden;" vertex="1" parent="SXDYL1rwi5fSFHbhI0N0-295">
          <mxGeometry width="30" height="30" as="geometry" />
        </mxCell>
        <mxCell id="SXDYL1rwi5fSFHbhI0N0-297" value="Create_at" style="shape=partialRectangle;connectable=0;fillColor=none;top=0;left=0;bottom=0;right=0;align=left;spacingLeft=6;overflow=hidden;" vertex="1" parent="SXDYL1rwi5fSFHbhI0N0-295">
          <mxGeometry x="30" width="150" height="30" as="geometry" />
        </mxCell>
        <mxCell id="SXDYL1rwi5fSFHbhI0N0-298" value="" style="shape=partialRectangle;collapsible=0;dropTarget=0;pointerEvents=0;fillColor=none;top=0;left=0;bottom=0;right=0;points=[[0,0.5],[1,0.5]];portConstraint=eastwest;" vertex="1" parent="SXDYL1rwi5fSFHbhI0N0-288">
          <mxGeometry y="240" width="180" height="30" as="geometry" />
        </mxCell>
        <mxCell id="SXDYL1rwi5fSFHbhI0N0-299" value="" style="shape=partialRectangle;connectable=0;fillColor=none;top=0;left=0;bottom=0;right=0;editable=1;overflow=hidden;" vertex="1" parent="SXDYL1rwi5fSFHbhI0N0-298">
          <mxGeometry width="30" height="30" as="geometry" />
        </mxCell>
        <mxCell id="SXDYL1rwi5fSFHbhI0N0-300" value="Update_at" style="shape=partialRectangle;connectable=0;fillColor=none;top=0;left=0;bottom=0;right=0;align=left;spacingLeft=6;overflow=hidden;" vertex="1" parent="SXDYL1rwi5fSFHbhI0N0-298">
          <mxGeometry x="30" width="150" height="30" as="geometry" />
        </mxCell>
        <mxCell id="SXDYL1rwi5fSFHbhI0N0-318" style="edgeStyle=orthogonalEdgeStyle;rounded=0;orthogonalLoop=1;jettySize=auto;html=1;exitX=1;exitY=0.5;exitDx=0;exitDy=0;entryX=-0.009;entryY=-0.129;entryDx=0;entryDy=0;entryPerimeter=0;" edge="1" parent="1" source="SXDYL1rwi5fSFHbhI0N0-182" target="SXDYL1rwi5fSFHbhI0N0-237">
          <mxGeometry relative="1" as="geometry" />
        </mxCell>
        <mxCell id="SXDYL1rwi5fSFHbhI0N0-319" style="edgeStyle=orthogonalEdgeStyle;rounded=0;orthogonalLoop=1;jettySize=auto;html=1;entryX=0;entryY=0.5;entryDx=0;entryDy=0;" edge="1" parent="1" source="SXDYL1rwi5fSFHbhI0N0-157" target="SXDYL1rwi5fSFHbhI0N0-272">
          <mxGeometry relative="1" as="geometry" />
        </mxCell>
        <mxCell id="SXDYL1rwi5fSFHbhI0N0-320" style="edgeStyle=orthogonalEdgeStyle;rounded=0;orthogonalLoop=1;jettySize=auto;html=1;entryX=0;entryY=0.5;entryDx=0;entryDy=0;" edge="1" parent="1" source="SXDYL1rwi5fSFHbhI0N0-272" target="SXDYL1rwi5fSFHbhI0N0-307">
          <mxGeometry relative="1" as="geometry" />
        </mxCell>
        <mxCell id="SXDYL1rwi5fSFHbhI0N0-343" value="Table View_Detail" style="shape=table;startSize=30;container=1;collapsible=1;childLayout=tableLayout;fixedRows=1;rowLines=0;fontStyle=1;align=center;resizeLast=1;strokeColor=#000000;" vertex="1" parent="1">
          <mxGeometry x="-300" y="460" width="200" height="160" as="geometry" />
        </mxCell>
        <mxCell id="SXDYL1rwi5fSFHbhI0N0-344" value="" style="shape=partialRectangle;collapsible=0;dropTarget=0;pointerEvents=0;fillColor=none;top=0;left=0;bottom=0;right=0;points=[[0,0.5],[1,0.5]];portConstraint=eastwest;strokeColor=#000000;" vertex="1" parent="SXDYL1rwi5fSFHbhI0N0-343">
          <mxGeometry y="30" width="200" height="30" as="geometry" />
        </mxCell>
        <mxCell id="SXDYL1rwi5fSFHbhI0N0-345" value="PK" style="shape=partialRectangle;connectable=0;fillColor=none;top=0;left=0;bottom=0;right=0;fontStyle=1;overflow=hidden;" vertex="1" parent="SXDYL1rwi5fSFHbhI0N0-344">
          <mxGeometry width="30" height="30" as="geometry" />
        </mxCell>
        <mxCell id="SXDYL1rwi5fSFHbhI0N0-346" value="Id View" style="shape=partialRectangle;connectable=0;fillColor=none;top=0;left=0;bottom=0;right=0;align=left;spacingLeft=6;fontStyle=1;overflow=hidden;" vertex="1" parent="SXDYL1rwi5fSFHbhI0N0-344">
          <mxGeometry x="30" width="170" height="30" as="geometry" />
        </mxCell>
        <mxCell id="SXDYL1rwi5fSFHbhI0N0-347" value="" style="shape=partialRectangle;collapsible=0;dropTarget=0;pointerEvents=0;fillColor=none;top=0;left=0;bottom=1;right=0;points=[[0,0.5],[1,0.5]];portConstraint=eastwest;" vertex="1" parent="SXDYL1rwi5fSFHbhI0N0-343">
          <mxGeometry y="60" width="200" height="30" as="geometry" />
        </mxCell>
        <mxCell id="SXDYL1rwi5fSFHbhI0N0-348" value="FK" style="shape=partialRectangle;connectable=0;fillColor=none;top=0;left=0;bottom=0;right=0;fontStyle=0;overflow=hidden;" vertex="1" parent="SXDYL1rwi5fSFHbhI0N0-347">
          <mxGeometry width="30" height="30" as="geometry" />
        </mxCell>
        <mxCell id="SXDYL1rwi5fSFHbhI0N0-349" value="Id_Barang" style="shape=partialRectangle;connectable=0;fillColor=none;top=0;left=0;bottom=0;right=0;align=left;spacingLeft=6;fontStyle=4;overflow=hidden;" vertex="1" parent="SXDYL1rwi5fSFHbhI0N0-347">
          <mxGeometry x="30" width="170" height="30" as="geometry" />
        </mxCell>
        <mxCell id="SXDYL1rwi5fSFHbhI0N0-350" value="" style="shape=partialRectangle;collapsible=0;dropTarget=0;pointerEvents=0;fillColor=none;top=0;left=0;bottom=0;right=0;points=[[0,0.5],[1,0.5]];portConstraint=eastwest;" vertex="1" parent="SXDYL1rwi5fSFHbhI0N0-343">
          <mxGeometry y="90" width="200" height="30" as="geometry" />
        </mxCell>
        <mxCell id="SXDYL1rwi5fSFHbhI0N0-351" value="" style="shape=partialRectangle;connectable=0;fillColor=none;top=0;left=0;bottom=0;right=0;editable=1;overflow=hidden;" vertex="1" parent="SXDYL1rwi5fSFHbhI0N0-350">
          <mxGeometry width="30" height="30" as="geometry" />
        </mxCell>
        <mxCell id="SXDYL1rwi5fSFHbhI0N0-352" value="Waktu" style="shape=partialRectangle;connectable=0;fillColor=none;top=0;left=0;bottom=0;right=0;align=left;spacingLeft=6;overflow=hidden;" vertex="1" parent="SXDYL1rwi5fSFHbhI0N0-350">
          <mxGeometry x="30" width="170" height="30" as="geometry" />
        </mxCell>
        <mxCell id="SXDYL1rwi5fSFHbhI0N0-356" value="" style="shape=partialRectangle;collapsible=0;dropTarget=0;pointerEvents=0;fillColor=none;top=0;left=0;bottom=0;right=0;points=[[0,0.5],[1,0.5]];portConstraint=eastwest;" vertex="1" parent="SXDYL1rwi5fSFHbhI0N0-343">
          <mxGeometry y="120" width="200" height="30" as="geometry" />
        </mxCell>
        <mxCell id="SXDYL1rwi5fSFHbhI0N0-357" value="" style="shape=partialRectangle;connectable=0;fillColor=none;top=0;left=0;bottom=0;right=0;editable=1;overflow=hidden;" vertex="1" parent="SXDYL1rwi5fSFHbhI0N0-356">
          <mxGeometry width="30" height="30" as="geometry" />
        </mxCell>
        <mxCell id="SXDYL1rwi5fSFHbhI0N0-358" value="Row 3" style="shape=partialRectangle;connectable=0;fillColor=none;top=0;left=0;bottom=0;right=0;align=left;spacingLeft=6;overflow=hidden;" vertex="1" parent="SXDYL1rwi5fSFHbhI0N0-356">
          <mxGeometry x="30" width="170" height="30" as="geometry" />
        </mxCell>
        <mxCell id="SXDYL1rwi5fSFHbhI0N0-361" style="edgeStyle=orthogonalEdgeStyle;rounded=0;orthogonalLoop=1;jettySize=auto;html=1;entryX=0;entryY=0.5;entryDx=0;entryDy=0;" edge="1" parent="1" source="SXDYL1rwi5fSFHbhI0N0-344" target="SXDYL1rwi5fSFHbhI0N0-244">
          <mxGeometry relative="1" as="geometry">
            <mxPoint x="250" y="460" as="targetPoint" />
          </mxGeometry>
        </mxCell>
        <mxCell id="SXDYL1rwi5fSFHbhI0N0-362" value="Table Gambar" style="shape=table;startSize=30;container=1;collapsible=1;childLayout=tableLayout;fixedRows=1;rowLines=0;fontStyle=1;align=center;resizeLast=1;strokeColor=#000000;" vertex="1" parent="1">
          <mxGeometry x="510" y="85" width="180" height="190" as="geometry" />
        </mxCell>
        <mxCell id="SXDYL1rwi5fSFHbhI0N0-363" value="" style="shape=partialRectangle;collapsible=0;dropTarget=0;pointerEvents=0;fillColor=none;top=0;left=0;bottom=0;right=0;points=[[0,0.5],[1,0.5]];portConstraint=eastwest;strokeColor=#000000;" vertex="1" parent="SXDYL1rwi5fSFHbhI0N0-362">
          <mxGeometry y="30" width="180" height="30" as="geometry" />
        </mxCell>
        <mxCell id="SXDYL1rwi5fSFHbhI0N0-364" value="PK" style="shape=partialRectangle;connectable=0;fillColor=none;top=0;left=0;bottom=0;right=0;fontStyle=1;overflow=hidden;" vertex="1" parent="SXDYL1rwi5fSFHbhI0N0-363">
          <mxGeometry width="30" height="30" as="geometry" />
        </mxCell>
        <mxCell id="SXDYL1rwi5fSFHbhI0N0-365" value="ID_Gambar" style="shape=partialRectangle;connectable=0;fillColor=none;top=0;left=0;bottom=0;right=0;align=left;spacingLeft=6;fontStyle=1;overflow=hidden;" vertex="1" parent="SXDYL1rwi5fSFHbhI0N0-363">
          <mxGeometry x="30" width="150" height="30" as="geometry" />
        </mxCell>
        <mxCell id="SXDYL1rwi5fSFHbhI0N0-366" value="" style="shape=partialRectangle;collapsible=0;dropTarget=0;pointerEvents=0;fillColor=none;top=0;left=0;bottom=1;right=0;points=[[0,0.5],[1,0.5]];portConstraint=eastwest;" vertex="1" parent="SXDYL1rwi5fSFHbhI0N0-362">
          <mxGeometry y="60" width="180" height="30" as="geometry" />
        </mxCell>
        <mxCell id="SXDYL1rwi5fSFHbhI0N0-367" value="" style="shape=partialRectangle;connectable=0;fillColor=none;top=0;left=0;bottom=0;right=0;fontStyle=0;overflow=hidden;" vertex="1" parent="SXDYL1rwi5fSFHbhI0N0-366">
          <mxGeometry width="30" height="30" as="geometry" />
        </mxCell>
        <mxCell id="SXDYL1rwi5fSFHbhI0N0-368" value="" style="shape=partialRectangle;connectable=0;fillColor=none;top=0;left=0;bottom=0;right=0;align=left;spacingLeft=6;fontStyle=4;overflow=hidden;" vertex="1" parent="SXDYL1rwi5fSFHbhI0N0-366">
          <mxGeometry x="30" width="150" height="30" as="geometry" />
        </mxCell>
        <mxCell id="SXDYL1rwi5fSFHbhI0N0-369" value="" style="shape=partialRectangle;collapsible=0;dropTarget=0;pointerEvents=0;fillColor=none;top=0;left=0;bottom=0;right=0;points=[[0,0.5],[1,0.5]];portConstraint=eastwest;" vertex="1" parent="SXDYL1rwi5fSFHbhI0N0-362">
          <mxGeometry y="90" width="180" height="30" as="geometry" />
        </mxCell>
        <mxCell id="SXDYL1rwi5fSFHbhI0N0-370" value="" style="shape=partialRectangle;connectable=0;fillColor=none;top=0;left=0;bottom=0;right=0;editable=1;overflow=hidden;" vertex="1" parent="SXDYL1rwi5fSFHbhI0N0-369">
          <mxGeometry width="30" height="30" as="geometry" />
        </mxCell>
        <mxCell id="SXDYL1rwi5fSFHbhI0N0-371" value="Create_at" style="shape=partialRectangle;connectable=0;fillColor=none;top=0;left=0;bottom=0;right=0;align=left;spacingLeft=6;overflow=hidden;" vertex="1" parent="SXDYL1rwi5fSFHbhI0N0-369">
          <mxGeometry x="30" width="150" height="30" as="geometry" />
        </mxCell>
        <mxCell id="SXDYL1rwi5fSFHbhI0N0-372" value="" style="shape=partialRectangle;collapsible=0;dropTarget=0;pointerEvents=0;fillColor=none;top=0;left=0;bottom=0;right=0;points=[[0,0.5],[1,0.5]];portConstraint=eastwest;" vertex="1" parent="SXDYL1rwi5fSFHbhI0N0-362">
          <mxGeometry y="120" width="180" height="30" as="geometry" />
        </mxCell>
        <mxCell id="SXDYL1rwi5fSFHbhI0N0-373" value="" style="shape=partialRectangle;connectable=0;fillColor=none;top=0;left=0;bottom=0;right=0;editable=1;overflow=hidden;" vertex="1" parent="SXDYL1rwi5fSFHbhI0N0-372">
          <mxGeometry width="30" height="30" as="geometry" />
        </mxCell>
        <mxCell id="SXDYL1rwi5fSFHbhI0N0-374" value="Update_at" style="shape=partialRectangle;connectable=0;fillColor=none;top=0;left=0;bottom=0;right=0;align=left;spacingLeft=6;overflow=hidden;" vertex="1" parent="SXDYL1rwi5fSFHbhI0N0-372">
          <mxGeometry x="30" width="150" height="30" as="geometry" />
        </mxCell>
        <mxCell id="SXDYL1rwi5fSFHbhI0N0-375" value="" style="shape=partialRectangle;collapsible=0;dropTarget=0;pointerEvents=0;fillColor=none;top=0;left=0;bottom=0;right=0;points=[[0,0.5],[1,0.5]];portConstraint=eastwest;" vertex="1" parent="SXDYL1rwi5fSFHbhI0N0-362">
          <mxGeometry y="150" width="180" height="30" as="geometry" />
        </mxCell>
        <mxCell id="SXDYL1rwi5fSFHbhI0N0-376" value="" style="shape=partialRectangle;connectable=0;fillColor=none;top=0;left=0;bottom=0;right=0;editable=1;overflow=hidden;" vertex="1" parent="SXDYL1rwi5fSFHbhI0N0-375">
          <mxGeometry width="30" height="30" as="geometry" />
        </mxCell>
        <mxCell id="SXDYL1rwi5fSFHbhI0N0-377" value="Row 3" style="shape=partialRectangle;connectable=0;fillColor=none;top=0;left=0;bottom=0;right=0;align=left;spacingLeft=6;overflow=hidden;" vertex="1" parent="SXDYL1rwi5fSFHbhI0N0-375">
          <mxGeometry x="30" width="150" height="30" as="geometry" />
        </mxCell>
        <mxCell id="SXDYL1rwi5fSFHbhI0N0-378" style="edgeStyle=orthogonalEdgeStyle;rounded=0;orthogonalLoop=1;jettySize=auto;html=1;entryX=0;entryY=0.5;entryDx=0;entryDy=0;" edge="1" parent="1" source="SXDYL1rwi5fSFHbhI0N0-353" target="SXDYL1rwi5fSFHbhI0N0-363">
          <mxGeometry relative="1" as="geometry" />
        </mxCell>
        <mxCell id="SXDYL1rwi5fSFHbhI0N0-392" value="Table" style="shape=table;startSize=30;container=1;collapsible=1;childLayout=tableLayout;fixedRows=1;rowLines=0;fontStyle=1;align=center;resizeLast=1;strokeColor=#000000;" vertex="1" parent="1">
          <mxGeometry x="-500" y="670" width="180" height="210" as="geometry" />
        </mxCell>
        <mxCell id="SXDYL1rwi5fSFHbhI0N0-393" value="" style="shape=partialRectangle;collapsible=0;dropTarget=0;pointerEvents=0;fillColor=none;top=0;left=0;bottom=1;right=0;points=[[0,0.5],[1,0.5]];portConstraint=eastwest;" vertex="1" parent="SXDYL1rwi5fSFHbhI0N0-392">
          <mxGeometry y="30" width="180" height="30" as="geometry" />
        </mxCell>
        <mxCell id="SXDYL1rwi5fSFHbhI0N0-394" value="PK" style="shape=partialRectangle;connectable=0;fillColor=none;top=0;left=0;bottom=0;right=0;fontStyle=1;overflow=hidden;" vertex="1" parent="SXDYL1rwi5fSFHbhI0N0-393">
          <mxGeometry width="30" height="30" as="geometry" />
        </mxCell>
        <mxCell id="SXDYL1rwi5fSFHbhI0N0-395" value="UniqueID" style="shape=partialRectangle;connectable=0;fillColor=none;top=0;left=0;bottom=0;right=0;align=left;spacingLeft=6;fontStyle=5;overflow=hidden;" vertex="1" parent="SXDYL1rwi5fSFHbhI0N0-393">
          <mxGeometry x="30" width="150" height="30" as="geometry" />
        </mxCell>
        <mxCell id="SXDYL1rwi5fSFHbhI0N0-396" value="" style="shape=partialRectangle;collapsible=0;dropTarget=0;pointerEvents=0;fillColor=none;top=0;left=0;bottom=0;right=0;points=[[0,0.5],[1,0.5]];portConstraint=eastwest;" vertex="1" parent="SXDYL1rwi5fSFHbhI0N0-392">
          <mxGeometry y="60" width="180" height="30" as="geometry" />
        </mxCell>
        <mxCell id="SXDYL1rwi5fSFHbhI0N0-397" value="" style="shape=partialRectangle;connectable=0;fillColor=none;top=0;left=0;bottom=0;right=0;editable=1;overflow=hidden;" vertex="1" parent="SXDYL1rwi5fSFHbhI0N0-396">
          <mxGeometry width="30" height="30" as="geometry" />
        </mxCell>
        <mxCell id="SXDYL1rwi5fSFHbhI0N0-398" value="Row 1" style="shape=partialRectangle;connectable=0;fillColor=none;top=0;left=0;bottom=0;right=0;align=left;spacingLeft=6;overflow=hidden;" vertex="1" parent="SXDYL1rwi5fSFHbhI0N0-396">
          <mxGeometry x="30" width="150" height="30" as="geometry" />
        </mxCell>
        <mxCell id="SXDYL1rwi5fSFHbhI0N0-399" value="" style="shape=partialRectangle;collapsible=0;dropTarget=0;pointerEvents=0;fillColor=none;top=0;left=0;bottom=0;right=0;points=[[0,0.5],[1,0.5]];portConstraint=eastwest;" vertex="1" parent="SXDYL1rwi5fSFHbhI0N0-392">
          <mxGeometry y="90" width="180" height="30" as="geometry" />
        </mxCell>
        <mxCell id="SXDYL1rwi5fSFHbhI0N0-400" value="" style="shape=partialRectangle;connectable=0;fillColor=none;top=0;left=0;bottom=0;right=0;editable=1;overflow=hidden;" vertex="1" parent="SXDYL1rwi5fSFHbhI0N0-399">
          <mxGeometry width="30" height="30" as="geometry" />
        </mxCell>
        <mxCell id="SXDYL1rwi5fSFHbhI0N0-401" value="Row 2" style="shape=partialRectangle;connectable=0;fillColor=none;top=0;left=0;bottom=0;right=0;align=left;spacingLeft=6;overflow=hidden;" vertex="1" parent="SXDYL1rwi5fSFHbhI0N0-399">
          <mxGeometry x="30" width="150" height="30" as="geometry" />
        </mxCell>
        <mxCell id="SXDYL1rwi5fSFHbhI0N0-304" value="" style="shape=partialRectangle;collapsible=0;dropTarget=0;pointerEvents=0;fillColor=none;top=0;left=0;bottom=0;right=0;points=[[0,0.5],[1,0.5]];portConstraint=eastwest;strokeColor=#000000;" vertex="1" parent="SXDYL1rwi5fSFHbhI0N0-392">
          <mxGeometry y="120" width="180" height="50" as="geometry" />
        </mxCell>
        <mxCell id="SXDYL1rwi5fSFHbhI0N0-305" value="" style="shape=partialRectangle;connectable=0;fillColor=none;top=0;left=0;bottom=0;right=0;editable=1;overflow=hidden;" vertex="1" parent="SXDYL1rwi5fSFHbhI0N0-304">
          <mxGeometry width="30" height="50" as="geometry" />
        </mxCell>
        <mxCell id="SXDYL1rwi5fSFHbhI0N0-306" value="" style="shape=partialRectangle;connectable=0;fillColor=none;top=0;left=0;bottom=0;right=0;align=left;spacingLeft=6;overflow=hidden;" vertex="1" parent="SXDYL1rwi5fSFHbhI0N0-304">
          <mxGeometry x="30" width="150" height="50" as="geometry" />
        </mxCell>
        <mxCell id="SXDYL1rwi5fSFHbhI0N0-402" value="" style="shape=partialRectangle;collapsible=0;dropTarget=0;pointerEvents=0;fillColor=none;top=0;left=0;bottom=0;right=0;points=[[0,0.5],[1,0.5]];portConstraint=eastwest;" vertex="1" parent="SXDYL1rwi5fSFHbhI0N0-392">
          <mxGeometry y="170" width="180" height="30" as="geometry" />
        </mxCell>
        <mxCell id="SXDYL1rwi5fSFHbhI0N0-403" value="" style="shape=partialRectangle;connectable=0;fillColor=none;top=0;left=0;bottom=0;right=0;editable=1;overflow=hidden;" vertex="1" parent="SXDYL1rwi5fSFHbhI0N0-402">
          <mxGeometry width="30" height="30" as="geometry" />
        </mxCell>
        <mxCell id="SXDYL1rwi5fSFHbhI0N0-404" value="Row 3" style="shape=partialRectangle;connectable=0;fillColor=none;top=0;left=0;bottom=0;right=0;align=left;spacingLeft=6;overflow=hidden;" vertex="1" parent="SXDYL1rwi5fSFHbhI0N0-402">
          <mxGeometry x="30" width="150" height="30" as="geometry" />
        </mxCell>
        <mxCell id="SXDYL1rwi5fSFHbhI0N0-408" value="Table_Keranjang" style="shape=table;startSize=30;container=1;collapsible=1;childLayout=tableLayout;fixedRows=1;rowLines=0;fontStyle=1;align=center;resizeLast=1;strokeColor=#000000;" vertex="1" parent="1">
          <mxGeometry x="-260" y="840" width="180" height="190" as="geometry" />
        </mxCell>
        <mxCell id="SXDYL1rwi5fSFHbhI0N0-409" value="" style="shape=partialRectangle;collapsible=0;dropTarget=0;pointerEvents=0;fillColor=none;top=0;left=0;bottom=0;right=0;points=[[0,0.5],[1,0.5]];portConstraint=eastwest;strokeColor=#000000;" vertex="1" parent="SXDYL1rwi5fSFHbhI0N0-408">
          <mxGeometry y="30" width="180" height="30" as="geometry" />
        </mxCell>
        <mxCell id="SXDYL1rwi5fSFHbhI0N0-410" value="PK" style="shape=partialRectangle;connectable=0;fillColor=none;top=0;left=0;bottom=0;right=0;fontStyle=1;overflow=hidden;" vertex="1" parent="SXDYL1rwi5fSFHbhI0N0-409">
          <mxGeometry width="30" height="30" as="geometry" />
        </mxCell>
        <mxCell id="SXDYL1rwi5fSFHbhI0N0-411" value="ID" style="shape=partialRectangle;connectable=0;fillColor=none;top=0;left=0;bottom=0;right=0;align=left;spacingLeft=6;fontStyle=1;overflow=hidden;" vertex="1" parent="SXDYL1rwi5fSFHbhI0N0-409">
          <mxGeometry x="30" width="150" height="30" as="geometry" />
        </mxCell>
        <mxCell id="SXDYL1rwi5fSFHbhI0N0-412" value="" style="shape=partialRectangle;collapsible=0;dropTarget=0;pointerEvents=0;fillColor=none;top=0;left=0;bottom=1;right=0;points=[[0,0.5],[1,0.5]];portConstraint=eastwest;" vertex="1" parent="SXDYL1rwi5fSFHbhI0N0-408">
          <mxGeometry y="60" width="180" height="30" as="geometry" />
        </mxCell>
        <mxCell id="SXDYL1rwi5fSFHbhI0N0-413" value="FK" style="shape=partialRectangle;connectable=0;fillColor=none;top=0;left=0;bottom=0;right=0;fontStyle=0;overflow=hidden;" vertex="1" parent="SXDYL1rwi5fSFHbhI0N0-412">
          <mxGeometry width="30" height="30" as="geometry" />
        </mxCell>
        <mxCell id="SXDYL1rwi5fSFHbhI0N0-414" value="Id" style="shape=partialRectangle;connectable=0;fillColor=none;top=0;left=0;bottom=0;right=0;align=left;spacingLeft=6;fontStyle=4;overflow=hidden;" vertex="1" parent="SXDYL1rwi5fSFHbhI0N0-412">
          <mxGeometry x="30" width="150" height="30" as="geometry" />
        </mxCell>
        <mxCell id="SXDYL1rwi5fSFHbhI0N0-415" value="" style="shape=partialRectangle;collapsible=0;dropTarget=0;pointerEvents=0;fillColor=none;top=0;left=0;bottom=0;right=0;points=[[0,0.5],[1,0.5]];portConstraint=eastwest;" vertex="1" parent="SXDYL1rwi5fSFHbhI0N0-408">
          <mxGeometry y="90" width="180" height="30" as="geometry" />
        </mxCell>
        <mxCell id="SXDYL1rwi5fSFHbhI0N0-416" value="" style="shape=partialRectangle;connectable=0;fillColor=none;top=0;left=0;bottom=0;right=0;editable=1;overflow=hidden;" vertex="1" parent="SXDYL1rwi5fSFHbhI0N0-415">
          <mxGeometry width="30" height="30" as="geometry" />
        </mxCell>
        <mxCell id="SXDYL1rwi5fSFHbhI0N0-417" value="Create_at" style="shape=partialRectangle;connectable=0;fillColor=none;top=0;left=0;bottom=0;right=0;align=left;spacingLeft=6;overflow=hidden;" vertex="1" parent="SXDYL1rwi5fSFHbhI0N0-415">
          <mxGeometry x="30" width="150" height="30" as="geometry" />
        </mxCell>
        <mxCell id="SXDYL1rwi5fSFHbhI0N0-418" value="" style="shape=partialRectangle;collapsible=0;dropTarget=0;pointerEvents=0;fillColor=none;top=0;left=0;bottom=0;right=0;points=[[0,0.5],[1,0.5]];portConstraint=eastwest;" vertex="1" parent="SXDYL1rwi5fSFHbhI0N0-408">
          <mxGeometry y="120" width="180" height="30" as="geometry" />
        </mxCell>
        <mxCell id="SXDYL1rwi5fSFHbhI0N0-419" value="" style="shape=partialRectangle;connectable=0;fillColor=none;top=0;left=0;bottom=0;right=0;editable=1;overflow=hidden;" vertex="1" parent="SXDYL1rwi5fSFHbhI0N0-418">
          <mxGeometry width="30" height="30" as="geometry" />
        </mxCell>
        <mxCell id="SXDYL1rwi5fSFHbhI0N0-420" value="Update_at" style="shape=partialRectangle;connectable=0;fillColor=none;top=0;left=0;bottom=0;right=0;align=left;spacingLeft=6;overflow=hidden;" vertex="1" parent="SXDYL1rwi5fSFHbhI0N0-418">
          <mxGeometry x="30" width="150" height="30" as="geometry" />
        </mxCell>
        <mxCell id="SXDYL1rwi5fSFHbhI0N0-421" value="" style="shape=partialRectangle;collapsible=0;dropTarget=0;pointerEvents=0;fillColor=none;top=0;left=0;bottom=0;right=0;points=[[0,0.5],[1,0.5]];portConstraint=eastwest;" vertex="1" parent="SXDYL1rwi5fSFHbhI0N0-408">
          <mxGeometry y="150" width="180" height="30" as="geometry" />
        </mxCell>
        <mxCell id="SXDYL1rwi5fSFHbhI0N0-422" value="" style="shape=partialRectangle;connectable=0;fillColor=none;top=0;left=0;bottom=0;right=0;editable=1;overflow=hidden;" vertex="1" parent="SXDYL1rwi5fSFHbhI0N0-421">
          <mxGeometry width="30" height="30" as="geometry" />
        </mxCell>
        <mxCell id="SXDYL1rwi5fSFHbhI0N0-423" value="Row 3" style="shape=partialRectangle;connectable=0;fillColor=none;top=0;left=0;bottom=0;right=0;align=left;spacingLeft=6;overflow=hidden;" vertex="1" parent="SXDYL1rwi5fSFHbhI0N0-421">
          <mxGeometry x="30" width="150" height="30" as="geometry" />
        </mxCell>
        <mxCell id="SXDYL1rwi5fSFHbhI0N0-433" style="edgeStyle=orthogonalEdgeStyle;rounded=0;orthogonalLoop=1;jettySize=auto;html=1;entryX=0;entryY=0.5;entryDx=0;entryDy=0;" edge="1" parent="1" source="SXDYL1rwi5fSFHbhI0N0-405" target="SXDYL1rwi5fSFHbhI0N0-289">
          <mxGeometry relative="1" as="geometry" />
        </mxCell>
      </root>
    </mxGraphModel>
  </diagram>
</mxfile>
